# xmcd
# 
# Track frame offsets:
#     150
#     19452
#     36687
#     55005
#     72335
#     90262
#     109230
#     126547
#     144715
#     161512
# 
# Disc length: 2402
# 
# Revision: 2
# Processed by: cddbd v1.5.2PL0 Copyright (c) Steve Scherf et al.
# Submitted via: fre:ac v1.0.17
# 
DISCID=9309600a
DTITLE=神山純一 - 水の音楽
DYEAR=1993
DGENRE=Instrumental
TTITLE0=水色の幻想
TTITLE1=Misty Pastoral
TTITLE2=風にゆれる光
TTITLE3=Staccato Polka
TTITLE4=Blue Horizen
TTITLE5=Sweet Rhapsody
TTITLE6=水のプレリュード
TTITLE7=愛のロンド
TTITLE8=Evening Shower
TTITLE9=水の風景
EXTD=YEAR: 1993
EXTT0=
EXTT1=
EXTT2=
EXTT3=
EXTT4=
EXTT5=
EXTT6=
EXTT7=
EXTT8=
EXTT9=
PLAYORDER=
